HIERARCHY
ROOT Hips
{
	OFFSET 0.00000 0.00000 0.00000
	CHANNELS 6 Xposition Yposition Zposition Zrotation Yrotation Xrotation 
	JOINT LHipJoint
	{
		OFFSET 0 0 0
		CHANNELS 3 Zrotation Yrotation Xrotation
		JOINT LeftHip
		{
			OFFSET 2.36090 -1.39315 1.24752
			CHANNELS 3 Zrotation Yrotation Xrotation
			JOINT LeftKnee
			{
				OFFSET 2.06810 -5.68207 0.00000
				CHANNELS 3 Zrotation Yrotation Xrotation
				JOINT LeftAnkle
				{
					OFFSET 2.46631 -6.77613 0.00000
					CHANNELS 3 Zrotation Yrotation Xrotation
					JOINT LeftToe
					{
						OFFSET 0.26031 -0.71520 1.99545
						CHANNELS 3 Zrotation Yrotation Xrotation
						End Site
						{
							OFFSET 0.00000 -0.00000 1.05957
						}
					}
				}
			}
		}
	}
	JOINT RHipJoint
	{
		OFFSET 0 0 0
		CHANNELS 3 Zrotation Yrotation Xrotation
		JOINT RightHip
		{
			OFFSET -2.25243 -1.39315 1.24752
			CHANNELS 3 Zrotation Yrotation Xrotation
			JOINT RightKnee
			{
				OFFSET -2.17343 -5.97145 0.00000
				CHANNELS 3 Zrotation Yrotation Xrotation
				JOINT RightAnkle
				{
					OFFSET -2.52372 -6.93386 0.00000
					CHANNELS 3 Zrotation Yrotation Xrotation
					JOINT RightToe
					{
						OFFSET -0.22538 -0.61923 2.11447
						CHANNELS 3 Zrotation Yrotation Xrotation
						End Site
						{
							OFFSET -0.00000 -0.00000 1.10506
						}
					}
				}
			}
		}
	}
	JOINT lowerback
	{
		OFFSET 0 0 0
		CHANNELS 3 Zrotation Yrotation Xrotation
		JOINT Chest
		{
			OFFSET 0.01594 2.13103 0.08007
			CHANNELS 3 Zrotation Yrotation Xrotation
			JOINT Chest2
			{
				OFFSET 0.01393 2.09723 0.18338
				CHANNELS 3 Zrotation Yrotation Xrotation
				JOINT lowerneck
				{
					OFFSET 0 0 0
					CHANNELS 3 Zrotation Yrotation Xrotation
					JOINT Neck
					{
						OFFSET 0.05351 1.38915 0.32494
						CHANNELS 3 Zrotation Yrotation Xrotation
						JOINT Head
						{
							OFFSET 0.00711 1.45992 -0.21666
							CHANNELS 3 Zrotation Yrotation Xrotation
							End Site
							{
								OFFSET -0.00433 1.47702 -0.11056
							}
						}
					}
				}
				JOINT LeftCollar
				{
					OFFSET 0 0 0
					CHANNELS 3 Zrotation Yrotation Xrotation
					JOINT LeftShoulder
					{
						OFFSET 2.87198 0.92249 0.11132
CHANNELS 3 Zrotation Xrotation Yrotation
						JOINT LeftElbow
						{
OFFSET 0 -5.527310 0.000000
CHANNELS 3 Zrotation Xrotation Yrotation
							JOINT LeftWrist
							{
OFFSET 0 -3.110590 0.000000
CHANNELS 3 Zrotation Xrotation Yrotation
								JOINT lhand
								{
									OFFSET 0 0 0
CHANNELS 3 Zrotation Xrotation Yrotation
									JOINT LFingers
									{
OFFSET 0 -0.419630 0.000000
CHANNELS 3 Zrotation Xrotation Yrotation
										End Site
										{
OFFSET 0 -0.338310 0.000000
										}
									}
								}
								JOINT LThumb
								{
OFFSET 0 0.000000 0.000000
CHANNELS 3 Zrotation Xrotation Yrotation
									End Site
									{
OFFSET 0 -0.343480 0.343480
									}
								}
							}
						}
					}
				}
				JOINT RightCollar
				{
					OFFSET 0 0 0
					CHANNELS 3 Zrotation Yrotation Xrotation
					JOINT RightShoulder
					{
						OFFSET -2.94710 0.68072 0.32187
CHANNELS 3 Zrotation Xrotation Yrotation
						JOINT RightElbow
						{
OFFSET 0 -5.253960 -0.000000
CHANNELS 3 Zrotation Xrotation Yrotation
							JOINT RightWrist
							{
OFFSET 0 -3.105670 0.000000
CHANNELS 3 Zrotation Xrotation Yrotation
								JOINT rhand
								{
									OFFSET 0 0 0
CHANNELS 3 Zrotation Xrotation Yrotation
									JOINT RFingers
									{
OFFSET 0 -0.498680 0.000000
CHANNELS 3 Zrotation Xrotation Yrotation
										End Site
										{
OFFSET 0 -0.402040 0.000000
										}
									}
								}
								JOINT RThumb
								{
OFFSET 0 0.000000 0.000000
CHANNELS 3 Zrotation Xrotation Yrotation
									End Site
									{
OFFSET 0 -0.408180 0.408180
									}
								}
							}
						}
					}
				}
			}
		}
	}
}
MOTION
Frames: 5
Frame Time: 0.008333333333333333
-2.982400 15.157300 33.361200 1.080200 52.350700 15.097800 0.000000 0.000000 0.000000 -21.140300 -28.253200 -8.030000 5.619500 14.049200 43.435000 -1.270100 -19.707400 10.784500 0.013400 0.746600 2.051800 0.000000 0.000000 0.000000 9.272000 34.757600 -32.209000 -4.484000 -12.778000 38.543000 -0.591300 -2.001200 -15.387700 -1.003800 6.375400 -17.877500 4.271100 2.853000 -14.477700 -1.776900 3.400500 -5.523700 -3.706400 1.711600 2.607500 10.437400 8.837600 -13.560300 -7.355300 13.160900 30.264700 -2.449500 6.276300 13.731000 0.000000 0.000000 0.000000 8.079700 12.287600 -14.785700 13.924600 -22.626800 2.799000 19.533000 -41.306300 4.496700 0.000000 0.000000 0.000000 -7.125000 0.000000 0.000000 -5.349400 25.207900 -2.572300 0.000000 0.000000 0.000000 -5.693500 5.232600 19.266300 -13.932800 -22.638600 -2.802200 -16.580800 2.578900 12.906100 0.000000 0.000000 0.000000 7.125000 0.000000 -0.000000 9.752600 43.212900 0.434500
-2.901272 15.172741 33.554013 -0.346927 53.318316 13.539486 0.000000 0.000000 0.000000 -19.510198 -27.113489 -11.972453 7.073805 15.392997 49.151761 -0.680223 -16.828666 15.548470 0.043210 1.341480 3.688853 0.000000 0.000000 0.000000 11.789119 34.065370 -29.890199 -4.264803 -12.504634 37.541416 -0.622399 -2.346310 -15.935580 -0.898762 6.042151 -16.906726 6.112721 2.812348 -13.875409 -1.284906 3.111573 -5.454604 -4.300917 1.549792 2.382094 10.792938 9.233250 -13.491080 -7.833245 13.860067 30.369660 -2.564050 6.566608 13.921736 0.000000 0.000000 0.000000 7.581028 12.207677 -14.523168 13.977812 -22.702948 2.819558 18.745170 -41.511290 4.136152 0.000000 0.000000 0.000000 -7.125000 0.000000 0.000000 -5.952683 25.608265 -2.809413 0.000000 0.000000 0.000000 -6.208374 4.331627 21.509486 -14.527421 -23.483645 -3.035139 -16.529323 0.859959 12.767386 0.000000 0.000000 0.000000 7.125000 0.000000 0.000000 9.767205 43.065825 0.470991
-2.827205 15.184912 33.732201 -1.679308 54.284292 12.161974 0.000000 0.000000 0.000000 -17.912797 -26.009618 -16.051955 8.506288 16.478259 54.365005 -0.325426 -15.060355 17.474699 0.001936 -0.032329 -0.089024 0.000000 0.000000 0.000000 13.995478 33.080221 -27.982794 -4.045198 -12.220229 36.515759 -0.649559 -2.451271 -16.307507 -0.822140 5.785139 -16.162377 7.774044 2.744064 -13.218455 -0.841485 2.845715 -5.421436 -4.838650 1.394877 2.069661 11.145149 9.563532 -13.411787 -8.273763 14.430891 30.348478 -2.686328 6.804881 14.043734 0.000000 0.000000 0.000000 7.260023 12.078735 -15.208582 14.094127 -22.869200 2.864613 18.086936 -41.703435 3.825609 0.000000 0.000000 0.000000 -7.125000 0.000000 0.000000 -6.460793 25.948441 -3.000376 0.000000 0.000000 0.000000 -6.766345 3.488213 23.707190 -15.160334 -24.368904 -3.291851 -16.641559 -0.479908 12.765448 0.000000 0.000000 0.000000 7.125000 0.000000 0.000000 9.666838 43.075706 0.463662
-2.757447 15.200038 33.898613 -2.698390 55.255234 11.091417 0.000000 0.000000 0.000000 -16.672817 -24.855738 -20.160733 9.846645 17.321741 58.973388 -0.361789 -14.192375 15.291042 0.162037 -2.580845 -7.114458 0.000000 0.000000 0.000000 15.784032 31.873530 -26.420994 -3.847880 -11.955149 35.573559 -0.678410 -2.340146 -16.578661 -0.764173 5.582411 -15.577330 9.025887 2.601263 -12.553581 -0.431582 2.557940 -5.375687 -5.177782 1.229057 1.736668 11.551508 9.835475 -13.292144 -8.751867 14.889150 30.170767 -2.854248 6.997087 14.088593 0.000000 0.000000 0.000000 7.063430 11.898541 -16.641501 14.277927 -23.130664 2.936405 17.307885 -41.554279 3.755961 0.000000 0.000000 0.000000 -7.125000 0.000000 0.000000 -7.052143 26.036457 -3.264295 0.000000 0.000000 0.000000 -7.442310 2.657437 25.838164 -15.757014 -25.190034 -3.541928 -17.109584 -1.496091 12.763883 0.000000 0.000000 0.000000 7.125000 0.000000 0.000000 9.248946 43.123386 0.432326
-2.685441 15.212329 34.056874 -3.191241 56.164706 10.580202 0.000000 0.000000 0.000000 -15.996185 -23.561522 -24.322139 10.957914 17.913867 62.644052 -0.389438 -12.608477 11.262082 0.366852 -3.889360 -10.765762 0.000000 0.000000 0.000000 17.004720 30.696980 -25.352177 -3.732821 -11.796150 35.014524 -0.720110 -2.157833 -16.952282 -0.715518 5.405566 -15.069107 9.735931 2.424392 -12.171690 -0.031602 2.263902 -5.206651 -5.206057 1.079295 1.664813 11.796289 10.061660 -13.295347 -9.209939 15.270222 29.854829 -2.996154 7.134452 14.075649 0.000000 0.000000 0.000000 6.873218 11.421065 -18.447489 14.463462 -23.393405 3.009708 15.732250 -40.701272 4.028106 0.000000 0.000000 0.000000 -7.125000 0.000000 0.000000 -8.225154 25.784303 -3.866538 0.000000 0.000000 0.000000 -8.263440 1.650191 27.646215 -16.243711 -25.850013 -3.751672 -17.915068 -2.170346 12.863449 0.000000 0.000000 0.000000 7.125000 0.000000 0.000000 8.550153 43.311573 0.359165
